<svg xmlns="http://www.w3.org/2000/svg" viewBox="0 0 36 36" width="36" height="36"><g fill="none" stroke="#86600F"><rect x=".9" y=".9" width="34.2" height="34.2" stroke-width="1.8"/><rect x="11.4" y="11.4" width="13.2" height="13.2" stroke-width=".7"/></g><g fill="#86600F"><path transform="translate(6.2 6.2) rotate(0)" d="M0,-1.2q2.2,-1.8 0,-4.6q-2.2,2.8 0,4.6z"/><path transform="translate(6.2 6.2) rotate(90)" d="M0,-1.2q2.2,-1.8 0,-4.6q-2.2,2.8 0,4.6z"/><path transform="translate(6.2 6.2) rotate(180)" d="M0,-1.2q2.2,-1.8 0,-4.6q-2.2,2.8 0,4.6z"/><path transform="translate(6.2 6.2) rotate(270)" d="M0,-1.2q2.2,-1.8 0,-4.6q-2.2,2.8 0,4.6z"/><circle cx="6.2" cy="6.2" r="1.1"/><path transform="translate(29.8 6.2) rotate(0)" d="M0,-1.2q2.2,-1.8 0,-4.6q-2.2,2.8 0,4.6z"/><path transform="translate(29.8 6.2) rotate(90)" d="M0,-1.2q2.2,-1.8 0,-4.6q-2.2,2.8 0,4.6z"/><path transform="translate(29.8 6.2) rotate(180)" d="M0,-1.2q2.2,-1.8 0,-4.6q-2.2,2.8 0,4.6z"/><path transform="translate(29.8 6.2) rotate(270)" d="M0,-1.2q2.2,-1.8 0,-4.6q-2.2,2.8 0,4.6z"/><circle cx="29.8" cy="6.2" r="1.1"/><path transform="translate(6.2 29.8) rotate(0)" d="M0,-1.2q2.2,-1.8 0,-4.6q-2.2,2.8 0,4.6z"/><path transform="translate(6.2 29.8) rotate(90)" d="M0,-1.2q2.2,-1.8 0,-4.6q-2.2,2.8 0,4.6z"/><path transform="translate(6.2 29.8) rotate(180)" d="M0,-1.2q2.2,-1.8 0,-4.6q-2.2,2.8 0,4.6z"/><path transform="translate(6.2 29.8) rotate(270)" d="M0,-1.2q2.2,-1.8 0,-4.6q-2.2,2.8 0,4.6z"/><circle cx="6.2" cy="29.8" r="1.1"/><path transform="translate(29.8 29.8) rotate(0)" d="M0,-1.2q2.2,-1.8 0,-4.6q-2.2,2.8 0,4.6z"/><path transform="translate(29.8 29.8) rotate(90)" d="M0,-1.2q2.2,-1.8 0,-4.6q-2.2,2.8 0,4.6z"/><path transform="translate(29.8 29.8) rotate(180)" d="M0,-1.2q2.2,-1.8 0,-4.6q-2.2,2.8 0,4.6z"/><path transform="translate(29.8 29.8) rotate(270)" d="M0,-1.2q2.2,-1.8 0,-4.6q-2.2,2.8 0,4.6z"/><circle cx="29.8" cy="29.8" r="1.1"/><path d="M18,3.6l2.6,2.6l-2.6,2.6l-2.6,-2.6z"/><circle cx="13.4" cy="6.2" r=".85"/><circle cx="22.6" cy="6.2" r=".85"/><path d="M18,27.2l2.6,2.6l-2.6,2.6l-2.6,-2.6z"/><circle cx="13.4" cy="29.8" r=".85"/><circle cx="22.6" cy="29.8" r=".85"/><path d="M6.2,15.4l2.6,2.6l-2.6,2.6l-2.6,-2.6z"/><circle cx="6.2" cy="13.4" r=".85"/><circle cx="6.2" cy="22.6" r=".85"/><path d="M29.8,15.4l2.6,2.6l-2.6,2.6l-2.6,-2.6z"/><circle cx="29.8" cy="13.4" r=".85"/><circle cx="29.8" cy="22.6" r=".85"/></g></svg>
